<svg height="512" viewBox="0 0 512 512" width="512" xmlns="http://www.w3.org/2000/svg"><g><g fill="#57a4ff"><path d="m440 40v232h-368v-232h-32v264h432v-264z"/><path d="m288 48h120v72h-120z"/><path d="m104 48h120v72h-120z"/><path d="m200 448h112v24h-112z"/><path d="m216 400h24v24h-24z"/><path d="m272 400h24v24h-24z"/><path d="m104 400h24v24h-24z"/><path d="m160 400h24v24h-24z"/><path d="m328 400h24v24h-24z"/><path d="m384 400h24v24h-24z"/><path d="m248 352h24v24h-24z"/><path d="m304 352h24v24h-24z"/><path d="m136 352h24v24h-24z"/><path d="m192 352h24v24h-24z"/><path d="m360 352h24v24h-24z"/></g><g fill="#004fac"><path d="m472 32h-24v-16a8 8 0 0 0 -8-8h-148a43.964 43.964 0 0 0 -36 18.75 43.964 43.964 0 0 0 -36-18.75h-148a8 8 0 0 0 -8 8v16h-24a8 8 0 0 0 -8 8v264a8 8 0 0 0 8 8h208v8h-152a24.032 24.032 0 0 0 -24 24v136a24.032 24.032 0 0 0 24 24h320a24.032 24.032 0 0 0 24-24v-136a24.032 24.032 0 0 0 -24-24h-152v-8h208a8 8 0 0 0 8-8v-264a8 8 0 0 0 -8-8zm-208 20a28.031 28.031 0 0 1 28-28h140v240h-168zm-184-28h140a28.031 28.031 0 0 1 28 28v212h-168zm336 312a8.011 8.011 0 0 1 8 8v136a8.011 8.011 0 0 1 -8 8h-320a8.011 8.011 0 0 1 -8-8v-136a8.011 8.011 0 0 1 8-8zm48-40h-416v-248h16v224a8 8 0 0 0 8 8h368a8 8 0 0 0 8-8v-224h16z"/><path d="m408 144h-119a8 8 0 0 0 0 16h119a8 8 0 0 0 0-16z"/><path d="m408 168h-119a8 8 0 0 0 0 16h119a8 8 0 0 0 0-16z"/><path d="m408 192h-119a8 8 0 0 0 0 16h119a8 8 0 0 0 0-16z"/><path d="m336 216h-47a8 8 0 0 0 0 16h47a8 8 0 0 0 0-16z"/><path d="m368 216h-8a8 8 0 0 0 0 16h8a8 8 0 0 0 0-16z"/><path d="m288 128h120a8 8 0 0 0 8-8v-72a8 8 0 0 0 -8-8h-120a8 8 0 0 0 -8 8v72a8 8 0 0 0 8 8zm8-72h104v56h-104z"/><path d="m224 144h-119a8 8 0 0 0 0 16h119a8 8 0 0 0 0-16z"/><path d="m224 168h-119a8 8 0 0 0 0 16h119a8 8 0 0 0 0-16z"/><path d="m224 192h-119a8 8 0 0 0 0 16h119a8 8 0 0 0 0-16z"/><path d="m152 216h-47a8 8 0 0 0 0 16h47a8 8 0 0 0 0-16z"/><path d="m184 216h-8a8 8 0 0 0 0 16h8a8 8 0 0 0 0-16z"/><path d="m104 128h120a8 8 0 0 0 8-8v-72a8 8 0 0 0 -8-8h-120a8 8 0 0 0 -8 8v72a8 8 0 0 0 8 8zm8-72h104v56h-104z"/><path d="m312 440h-112a8 8 0 0 0 -8 8v24a8 8 0 0 0 8 8h112a8 8 0 0 0 8-8v-24a8 8 0 0 0 -8-8zm-8 24h-96v-8h96z"/><path d="m208 400v24a8 8 0 0 0 8 8h24a8 8 0 0 0 8-8v-24a8 8 0 0 0 -8-8h-24a8 8 0 0 0 -8 8zm16 8h8v8h-8z"/><path d="m264 400v24a8 8 0 0 0 8 8h24a8 8 0 0 0 8-8v-24a8 8 0 0 0 -8-8h-24a8 8 0 0 0 -8 8zm16 8h8v8h-8z"/><path d="m128 392h-24a8 8 0 0 0 -8 8v24a8 8 0 0 0 8 8h24a8 8 0 0 0 8-8v-24a8 8 0 0 0 -8-8zm-8 24h-8v-8h8z"/><path d="m192 400a8 8 0 0 0 -8-8h-24a8 8 0 0 0 -8 8v24a8 8 0 0 0 8 8h24a8 8 0 0 0 8-8zm-16 16h-8v-8h8z"/><path d="m320 400v24a8 8 0 0 0 8 8h24a8 8 0 0 0 8-8v-24a8 8 0 0 0 -8-8h-24a8 8 0 0 0 -8 8zm16 8h8v8h-8z"/><path d="m376 400v24a8 8 0 0 0 8 8h24a8 8 0 0 0 8-8v-24a8 8 0 0 0 -8-8h-24a8 8 0 0 0 -8 8zm16 8h8v8h-8z"/><path d="m240 352v24a8 8 0 0 0 8 8h24a8 8 0 0 0 8-8v-24a8 8 0 0 0 -8-8h-24a8 8 0 0 0 -8 8zm16 8h8v8h-8z"/><path d="m304 384h24a8 8 0 0 0 8-8v-24a8 8 0 0 0 -8-8h-24a8 8 0 0 0 -8 8v24a8 8 0 0 0 8 8zm8-24h8v8h-8z"/><path d="m168 376v-24a8 8 0 0 0 -8-8h-24a8 8 0 0 0 -8 8v24a8 8 0 0 0 8 8h24a8 8 0 0 0 8-8zm-16-8h-8v-8h8z"/><path d="m192 384h24a8 8 0 0 0 8-8v-24a8 8 0 0 0 -8-8h-24a8 8 0 0 0 -8 8v24a8 8 0 0 0 8 8zm8-24h8v8h-8z"/><path d="m360 384h24a8 8 0 0 0 8-8v-24a8 8 0 0 0 -8-8h-24a8 8 0 0 0 -8 8v24a8 8 0 0 0 8 8zm8-24h8v8h-8z"/></g></g></svg>